<svg width="128" height="128" viewBox="0 0 128 128" fill="none" xmlns="http://www.w3.org/2000/svg">
<g filter="url(#filter0_d_945_9702)">
<mask id="path-1-outside-1_945_9702" maskUnits="userSpaceOnUse" x="20" y="-1" width="109" height="109" fill="black">
<rect fill="white" x="20" y="-1" width="109" height="109"/>
<path d="M128 65.311L62.689 -2.85483e-06L23 -4.5897e-06L128 105L128 65.311Z"/>
<path d="M62.9145 27.0922L66.2851 30.3677L65.0028 31.6873L59.9971 26.8228L69.6842 16.8543L71.3193 18.4433L62.9145 27.0922Z"/>
<path d="M69.7 28.499C70.4713 27.7054 71.3168 27.1605 72.2366 26.8645C73.166 26.5777 74.0754 26.5411 74.9648 26.7547C75.873 26.968 76.6714 27.4092 77.3598 28.0782C77.9814 28.6822 78.4008 29.3315 78.6182 30.0262C78.8545 30.7205 78.9347 31.3841 78.8589 32.017L79.9739 30.8695L81.6234 32.4724L73.9434 40.3755L72.294 38.7726L73.4369 37.5964C72.7972 37.6999 72.1175 37.6436 71.3978 37.4276C70.6781 37.2116 70.0123 36.8063 69.4003 36.2116C68.7214 35.5518 68.2671 34.7757 68.0375 33.8832C67.8171 32.9812 67.8416 32.0568 68.1109 31.1101C68.3991 30.163 68.9288 29.2927 69.7 28.499ZM76.1409 34.8139C76.6706 34.2688 77.0158 33.684 77.1766 33.0594C77.3469 32.444 77.3526 31.8546 77.1937 31.2912C77.0347 30.7277 76.7449 30.2416 76.3242 29.8327C75.9035 29.4238 75.4092 29.148 74.8414 29.0053C74.2829 28.853 73.6938 28.8662 73.074 29.0448C72.4731 29.2231 71.9078 29.5848 71.3782 30.1298C70.8485 30.6748 70.4939 31.2598 70.3142 31.8847C70.1442 32.5189 70.134 33.1225 70.2836 33.6955C70.4521 34.2683 70.7419 34.7544 71.1531 35.154C71.5738 35.5629 72.0681 35.8386 72.6359 35.9814C73.2037 36.1241 73.7927 36.1015 74.4028 35.9137C75.0319 35.7255 75.6113 35.3589 76.1409 34.8139Z"/>
<path d="M84.3824 37.7471L80.1313 42.1218C79.8432 42.4182 79.7011 42.6984 79.7048 42.9624C79.7275 43.2261 79.9061 43.5205 80.2408 43.8457L81.2448 44.8214L79.9207 46.184L78.6298 44.9296C77.8935 44.2141 77.4966 43.4937 77.4391 42.7685C77.3816 42.0433 77.7291 41.2934 78.4818 40.5189L82.733 36.1442L81.8007 35.2382L83.0969 33.9043L84.0292 34.8103L85.9388 32.8453L87.5882 34.4482L85.6787 36.4132L87.6007 38.281L86.3044 39.6149L84.3824 37.7471Z"/>
<path d="M92.6992 50.5422C92.4111 50.8386 92.1318 51.0877 91.8612 51.2896L85.8228 45.4216C85.2573 46.0992 84.9991 46.8336 85.0481 47.625C85.0972 48.4163 85.4277 49.1093 86.0397 49.704C86.9194 50.5589 87.8987 50.7948 88.9775 50.4116L90.7417 52.126C89.7965 52.6204 88.7806 52.7952 87.6942 52.6505C86.6267 52.5055 85.6291 51.9823 84.7016 51.081C83.9462 50.3469 83.4299 49.5198 83.1527 48.5997C82.8944 47.6794 82.8904 46.746 83.1409 45.7995C83.4102 44.8527 83.9398 43.9729 84.7296 43.1602C85.5195 42.3474 86.3743 41.793 87.2941 41.4969C88.2328 41.2006 89.1611 41.1732 90.0792 41.4146C91.0068 41.6654 91.8579 42.1671 92.6325 42.9197C93.3783 43.6445 93.8849 44.4529 94.1523 45.3448C94.4196 46.2367 94.4278 47.1371 94.1768 48.0459C93.9351 48.9451 93.4425 49.7772 92.6992 50.5422ZM91.4941 48.3672C92.0699 47.7555 92.3241 47.0635 92.2564 46.2913C92.1888 45.5191 91.8442 44.831 91.2227 44.227C90.6585 43.6787 89.9991 43.3912 89.2444 43.3642C88.4989 43.3278 87.7906 43.5784 87.1194 44.116L91.4941 48.3672Z"/>
<path d="M93.0233 59.1678C92.4018 58.5638 91.9492 57.9102 91.6657 57.2071C91.4011 56.5037 91.3112 55.8214 91.396 55.1601C91.4901 54.4893 91.7599 53.9056 92.2054 53.4089L93.8979 55.0536C93.6013 55.4161 93.485 55.8515 93.5488 56.3598C93.6316 56.8678 93.8928 57.3355 94.3327 57.7629C94.7917 58.209 95.2291 58.4667 95.645 58.5362C96.0797 58.6054 96.4318 58.5014 96.7013 58.2241C96.9893 57.9276 97.0596 57.5683 96.9121 57.1461C96.7742 56.7332 96.4829 56.1434 96.0382 55.3765C95.6033 54.6379 95.2737 54.0109 95.0495 53.4955C94.8252 52.9801 94.7278 52.4299 94.7571 51.8448C94.796 51.2691 95.0664 50.7231 95.5682 50.2067C95.977 49.786 96.473 49.5243 97.0561 49.4217C97.6486 49.3095 98.2718 49.376 98.9259 49.6212C99.5896 49.8757 100.223 50.2957 100.825 50.8811C101.724 51.7545 102.223 52.6856 102.322 53.6742C102.44 54.6626 102.137 55.5674 101.413 56.3887L99.778 54.7997C100.093 54.418 100.224 53.9966 100.17 53.5353C100.116 53.074 99.8695 52.6297 99.4296 52.2023C98.9993 51.7841 98.5905 51.5448 98.203 51.4844C97.8155 51.4239 97.4917 51.5275 97.2315 51.7953C97.0271 52.0056 96.9317 52.2569 96.9453 52.549C96.9589 52.8411 97.0339 53.137 97.1702 53.4368C97.3158 53.727 97.5433 54.1434 97.8528 54.6858C98.2779 55.3963 98.5931 56.0094 98.7985 56.5251C99.0227 57.0405 99.12 57.5813 99.0904 58.1474C99.0608 58.7136 98.8046 59.2547 98.3216 59.7708C97.8849 60.2202 97.3703 60.501 96.7779 60.6132C96.1855 60.7254 95.5622 60.6589 94.9081 60.4137C94.2635 60.1778 93.6353 59.7625 93.0233 59.1678Z"/>
<path d="M106.233 58.9812L101.982 63.3558C101.694 63.6523 101.552 63.9325 101.556 64.1964C101.578 64.4601 101.757 64.7546 102.092 65.0798L103.096 66.0555L101.772 67.4181L100.481 66.1636C99.7444 65.4481 99.3475 64.7278 99.2899 64.0026C99.2324 63.2773 99.58 62.5275 100.333 61.7529L104.584 57.3783L103.652 56.4723L104.948 55.1384L105.88 56.0444L107.79 54.0794L109.439 55.6823L107.53 57.6473L109.452 59.515L108.155 60.8489L106.233 58.9812Z"/>
</mask>
<path d="M128 65.311L62.689 -2.85483e-06L23 -4.5897e-06L128 105L128 65.311Z" fill="#FF0000"/>
<path d="M62.9145 27.0922L66.2851 30.3677L65.0028 31.6873L59.9971 26.8228L69.6842 16.8543L71.3193 18.4433L62.9145 27.0922Z" fill="white"/>
<path d="M69.7 28.499C70.4713 27.7054 71.3168 27.1605 72.2366 26.8645C73.166 26.5777 74.0754 26.5411 74.9648 26.7547C75.873 26.968 76.6714 27.4092 77.3598 28.0782C77.9814 28.6822 78.4008 29.3315 78.6182 30.0262C78.8545 30.7205 78.9347 31.3841 78.8589 32.017L79.9739 30.8695L81.6234 32.4724L73.9434 40.3755L72.294 38.7726L73.4369 37.5964C72.7972 37.6999 72.1175 37.6436 71.3978 37.4276C70.6781 37.2116 70.0123 36.8063 69.4003 36.2116C68.7214 35.5518 68.2671 34.7757 68.0375 33.8832C67.8171 32.9812 67.8416 32.0568 68.1109 31.1101C68.3991 30.163 68.9288 29.2927 69.7 28.499ZM76.1409 34.8139C76.6706 34.2688 77.0158 33.684 77.1766 33.0594C77.3469 32.444 77.3526 31.8546 77.1937 31.2912C77.0347 30.7277 76.7449 30.2416 76.3242 29.8327C75.9035 29.4238 75.4092 29.148 74.8414 29.0053C74.2829 28.853 73.6938 28.8662 73.074 29.0448C72.4731 29.2231 71.9078 29.5848 71.3782 30.1298C70.8485 30.6748 70.4939 31.2598 70.3142 31.8847C70.1442 32.5189 70.134 33.1225 70.2836 33.6955C70.4521 34.2683 70.7419 34.7544 71.1531 35.154C71.5738 35.5629 72.0681 35.8386 72.6359 35.9814C73.2037 36.1241 73.7927 36.1015 74.4028 35.9137C75.0319 35.7255 75.6113 35.3589 76.1409 34.8139Z" fill="white"/>
<path d="M84.3824 37.7471L80.1313 42.1218C79.8432 42.4182 79.7011 42.6984 79.7048 42.9624C79.7275 43.2261 79.9061 43.5205 80.2408 43.8457L81.2448 44.8214L79.9207 46.184L78.6298 44.9296C77.8935 44.2141 77.4966 43.4937 77.4391 42.7685C77.3816 42.0433 77.7291 41.2934 78.4818 40.5189L82.733 36.1442L81.8007 35.2382L83.0969 33.9043L84.0292 34.8103L85.9388 32.8453L87.5882 34.4482L85.6787 36.4132L87.6007 38.281L86.3044 39.6149L84.3824 37.7471Z" fill="white"/>
<path d="M92.6992 50.5422C92.4111 50.8386 92.1318 51.0877 91.8612 51.2896L85.8228 45.4216C85.2573 46.0992 84.9991 46.8336 85.0481 47.625C85.0972 48.4163 85.4277 49.1093 86.0397 49.704C86.9194 50.5589 87.8987 50.7948 88.9775 50.4116L90.7417 52.126C89.7965 52.6204 88.7806 52.7952 87.6942 52.6505C86.6267 52.5055 85.6291 51.9823 84.7016 51.081C83.9462 50.3469 83.4299 49.5198 83.1527 48.5997C82.8944 47.6794 82.8904 46.746 83.1409 45.7995C83.4102 44.8527 83.9398 43.9729 84.7296 43.1602C85.5195 42.3474 86.3743 41.793 87.2941 41.4969C88.2328 41.2006 89.1611 41.1732 90.0792 41.4146C91.0068 41.6654 91.8579 42.1671 92.6325 42.9197C93.3783 43.6445 93.8849 44.4529 94.1523 45.3448C94.4196 46.2367 94.4278 47.1371 94.1768 48.0459C93.9351 48.9451 93.4425 49.7772 92.6992 50.5422ZM91.4941 48.3672C92.0699 47.7555 92.3241 47.0635 92.2564 46.2913C92.1888 45.5191 91.8442 44.831 91.2227 44.227C90.6585 43.6787 89.9991 43.3912 89.2444 43.3642C88.4989 43.3278 87.7906 43.5784 87.1194 44.116L91.4941 48.3672Z" fill="white"/>
<path d="M93.0233 59.1678C92.4018 58.5638 91.9492 57.9102 91.6657 57.2071C91.4011 56.5037 91.3112 55.8214 91.396 55.1601C91.4901 54.4893 91.7599 53.9056 92.2054 53.4089L93.8979 55.0536C93.6013 55.4161 93.485 55.8515 93.5488 56.3598C93.6316 56.8678 93.8928 57.3355 94.3327 57.7629C94.7917 58.209 95.2291 58.4667 95.645 58.5362C96.0797 58.6054 96.4318 58.5014 96.7013 58.2241C96.9893 57.9276 97.0596 57.5683 96.9121 57.1461C96.7742 56.7332 96.4829 56.1434 96.0382 55.3765C95.6033 54.6379 95.2737 54.0109 95.0495 53.4955C94.8252 52.9801 94.7278 52.4299 94.7571 51.8448C94.796 51.2691 95.0664 50.7231 95.5682 50.2067C95.977 49.786 96.473 49.5243 97.0561 49.4217C97.6486 49.3095 98.2718 49.376 98.9259 49.6212C99.5896 49.8757 100.223 50.2957 100.825 50.8811C101.724 51.7545 102.223 52.6856 102.322 53.6742C102.44 54.6626 102.137 55.5674 101.413 56.3887L99.778 54.7997C100.093 54.418 100.224 53.9966 100.17 53.5353C100.116 53.074 99.8695 52.6297 99.4296 52.2023C98.9993 51.7841 98.5905 51.5448 98.203 51.4844C97.8155 51.4239 97.4917 51.5275 97.2315 51.7953C97.0271 52.0056 96.9317 52.2569 96.9453 52.549C96.9589 52.8411 97.0339 53.137 97.1702 53.4368C97.3158 53.727 97.5433 54.1434 97.8528 54.6858C98.2779 55.3963 98.5931 56.0094 98.7985 56.5251C99.0227 57.0405 99.12 57.5813 99.0904 58.1474C99.0608 58.7136 98.8046 59.2547 98.3216 59.7708C97.8849 60.2202 97.3703 60.501 96.7779 60.6132C96.1855 60.7254 95.5622 60.6589 94.9081 60.4137C94.2635 60.1778 93.6353 59.7625 93.0233 59.1678Z" fill="white"/>
<path d="M106.233 58.9812L101.982 63.3558C101.694 63.6523 101.552 63.9325 101.556 64.1964C101.578 64.4601 101.757 64.7546 102.092 65.0798L103.096 66.0555L101.772 67.4181L100.481 66.1636C99.7444 65.4481 99.3475 64.7278 99.2899 64.0026C99.2324 63.2773 99.58 62.5275 100.333 61.7529L104.584 57.3783L103.652 56.4723L104.948 55.1384L105.88 56.0444L107.79 54.0794L109.439 55.6823L107.53 57.6473L109.452 59.515L108.155 60.8489L106.233 58.9812Z" fill="white"/>
<path d="M62.689 -2.85483e-06L63.3961 -0.70711L63.1032 -1L62.689 -1L62.689 -2.85483e-06ZM128 65.311L129 65.311L129 64.8968L128.707 64.6039L128 65.311ZM128 105L127.293 105.707L129 107.414L129 105L128 105ZM23 -4.5897e-06L23 -1L20.5858 -1L22.2929 0.707102L23 -4.5897e-06ZM62.9145 27.0922L62.1974 26.3953L61.5004 27.1124L62.2176 27.8093L62.9145 27.0922ZM66.2851 30.3677L67.0023 31.0646L67.6992 30.3474L66.9821 29.6505L66.2851 30.3677ZM65.0028 31.6873L64.3059 32.4044L65.0231 33.1013L65.72 32.3842L65.0028 31.6873ZM59.9971 26.8228L59.2799 26.1259L58.583 26.843L59.3002 27.54L59.9971 26.8228ZM69.6842 16.8543L70.3811 16.1372L69.6639 15.4403L68.967 16.1574L69.6842 16.8543ZM71.3193 18.4433L72.0364 19.1402L72.7333 18.423L72.0162 17.7261L71.3193 18.4433ZM69.7 28.499L70.4172 29.1959L69.7 28.499ZM72.2366 26.8645L71.9418 25.9089L71.9303 25.9126L72.2366 26.8645ZM74.9648 26.7547L74.7313 27.7271L74.7361 27.7282L74.9648 26.7547ZM77.3598 28.0782L78.0567 27.3611L77.3598 28.0782ZM78.6182 30.0262L77.6639 30.3248L77.6675 30.3366L77.6715 30.3482L78.6182 30.0262ZM78.8589 32.017L77.866 31.898L77.5141 34.8357L79.576 32.7139L78.8589 32.017ZM79.9739 30.8695L80.6708 30.1523L79.9537 29.4554L79.2568 30.1726L79.9739 30.8695ZM81.6234 32.4724L82.3405 33.1693L83.0375 32.4522L82.3203 31.7552L81.6234 32.4724ZM73.9434 40.3755L73.2465 41.0926L73.9637 41.7895L74.6606 41.0724L73.9434 40.3755ZM72.294 38.7726L71.5768 38.0757L70.8799 38.7928L71.597 39.4897L72.294 38.7726ZM73.4369 37.5964L74.154 38.2933L76.2592 36.127L73.2773 36.6093L73.4369 37.5964ZM71.3978 37.4276L71.6852 36.4698L71.3978 37.4276ZM69.4003 36.2116L68.7034 36.9287L69.4003 36.2116ZM68.0375 33.8832L67.066 34.1206L67.069 34.1324L68.0375 33.8832ZM68.1109 31.1101L67.1542 30.8189L67.1516 30.8277L67.1491 30.8364L68.1109 31.1101ZM76.1409 34.8139L76.8581 35.5108L76.1409 34.8139ZM77.1766 33.0594L76.2128 32.7926L76.2104 32.8013L76.2081 32.8101L77.1766 33.0594ZM77.1937 31.2912L76.2312 31.5626L77.1937 31.2912ZM74.8414 29.0053L74.5783 29.9701L74.5879 29.9727L74.5976 29.9751L74.8414 29.0053ZM73.074 29.0448L72.7971 28.0838L72.7895 28.0861L73.074 29.0448ZM71.3782 30.1298L72.0953 30.8267L71.3782 30.1298ZM70.3142 31.8847L69.3532 31.6084L69.3507 31.617L69.3484 31.6257L70.3142 31.8847ZM70.2836 33.6955L69.316 33.9482L69.3199 33.963L69.3242 33.9777L70.2836 33.6955ZM71.1531 35.154L71.85 34.4368L71.1531 35.154ZM72.6359 35.9814L72.3921 36.9512L72.6359 35.9814ZM74.4028 35.9137L74.1163 34.9556L74.1086 34.9579L74.4028 35.9137ZM84.3824 37.7471L85.0793 37.03L84.3622 36.3331L83.6653 37.0502L84.3824 37.7471ZM80.1313 42.1218L79.4141 41.4249L80.1313 42.1218ZM79.7048 42.9624L78.7049 42.9767L78.7055 43.0123L78.7085 43.0479L79.7048 42.9624ZM80.2408 43.8457L80.9377 43.1286L80.9377 43.1286L80.2408 43.8457ZM81.2448 44.8214L81.962 45.5183L82.6589 44.8012L81.9417 44.1043L81.2448 44.8214ZM79.9207 46.184L79.2238 46.9012L79.9409 47.5981L80.6378 46.8809L79.9207 46.184ZM78.6298 44.9296L79.3267 44.2124L78.6298 44.9296ZM77.4391 42.7685L76.4422 42.8476L77.4391 42.7685ZM78.4818 40.5189L77.7646 39.822L78.4818 40.5189ZM82.733 36.1442L83.4501 36.8411L84.147 36.124L83.4299 35.4271L82.733 36.1442ZM81.8007 35.2382L81.0835 34.5413L80.3866 35.2585L81.1038 35.9554L81.8007 35.2382ZM83.0969 33.9043L83.7938 33.1872L83.0767 32.4903L82.3798 33.2074L83.0969 33.9043ZM84.0292 34.8103L83.3323 35.5275L84.0495 36.2244L84.7464 35.5072L84.0292 34.8103ZM85.9388 32.8453L86.6357 32.1282L85.9185 31.4312L85.2216 32.1484L85.9388 32.8453ZM87.5882 34.4482L88.3054 35.1451L89.0023 34.428L88.2851 33.7311L87.5882 34.4482ZM85.6787 36.4132L84.9615 35.7163L84.2646 36.4335L84.9818 37.1304L85.6787 36.4132ZM87.6007 38.281L88.3178 38.9779L89.0147 38.2607L88.2976 37.5638L87.6007 38.281ZM86.3044 39.6149L85.6075 40.332L86.3246 41.0289L87.0216 40.3118L86.3044 39.6149ZM92.6992 50.5422L93.4163 51.2391L92.6992 50.5422ZM91.8612 51.2896L91.1643 52.0068L91.7759 52.601L92.4593 52.0911L91.8612 51.2896ZM85.8228 45.4216L86.5197 44.7045L85.7462 43.9528L85.055 44.7809L85.8228 45.4216ZM85.0481 47.625L84.0501 47.6868L85.0481 47.625ZM86.0397 49.704L86.7366 48.9869L86.0397 49.704ZM88.9775 50.4116L89.6744 49.6944L89.2286 49.2612L88.6428 49.4692L88.9775 50.4116ZM90.7417 52.126L91.2052 53.0121L92.4295 52.3717L91.4386 51.4088L90.7417 52.126ZM87.6942 52.6505L87.5596 53.6414L87.5622 53.6417L87.6942 52.6505ZM84.7016 51.081L85.3985 50.3638L84.7016 51.081ZM83.1527 48.5997L82.1899 48.87L82.1925 48.8791L82.1952 48.8882L83.1527 48.5997ZM83.1409 45.7995L82.1791 45.5259L82.1765 45.5347L82.1742 45.5436L83.1409 45.7995ZM87.2941 41.4969L86.9931 40.5433L86.9877 40.545L87.2941 41.4969ZM90.0792 41.4146L90.3402 40.4492L90.3336 40.4475L90.0792 41.4146ZM92.6325 42.9197L91.9355 43.6369L92.6325 42.9197ZM94.1523 45.3448L95.1101 45.0577L94.1523 45.3448ZM94.1768 48.0459L93.2128 47.7796L93.2111 47.7863L94.1768 48.0459ZM91.4941 48.3672L90.7972 49.0843L91.5258 49.7924L92.2222 49.0526L91.4941 48.3672ZM92.2564 46.2913L93.2526 46.204L92.2564 46.2913ZM91.2227 44.227L91.9196 43.5098L91.2227 44.227ZM89.2444 43.3642L89.1955 44.3631L89.2087 44.3636L89.2444 43.3642ZM87.1194 44.116L86.4943 43.3355L85.6101 44.0437L86.4225 44.8331L87.1194 44.116ZM93.0233 59.1678L92.3264 59.8849L93.0233 59.1678ZM91.6657 57.2071L90.7298 57.5592L90.7339 57.5702L90.7383 57.581L91.6657 57.2071ZM91.396 55.1601L90.4056 55.0212L90.4041 55.0329L91.396 55.1601ZM92.2054 53.4089L92.9023 52.6917L92.1559 51.9664L91.461 52.7412L92.2054 53.4089ZM93.8979 55.0536L94.6719 55.6867L95.2531 54.9762L94.5948 54.3364L93.8979 55.0536ZM93.5488 56.3598L92.5566 56.4845L92.5589 56.5025L92.5618 56.5205L93.5488 56.3598ZM94.3327 57.7629L93.6358 58.4801L94.3327 57.7629ZM95.645 58.5362L95.4802 59.5226L95.4877 59.5238L95.645 58.5362ZM96.7013 58.2241L97.4184 58.921L96.7013 58.2241ZM96.9121 57.1461L95.9636 57.463L95.9681 57.4759L96.9121 57.1461ZM96.0382 55.3765L96.9032 54.8748L96.8999 54.8692L96.0382 55.3765ZM95.0495 53.4955L94.1325 53.8944L95.0495 53.4955ZM94.7571 51.8448L93.7594 51.7774L93.7588 51.7861L93.7584 51.7948L94.7571 51.8448ZM95.5682 50.2067L94.851 49.5098L95.5682 50.2067ZM97.0561 49.4217L97.2295 50.4066L97.2422 50.4042L97.0561 49.4217ZM98.9259 49.6212L99.284 48.6875L99.277 48.6848L98.9259 49.6212ZM100.825 50.8811L101.522 50.1639L100.825 50.8811ZM102.322 53.6742L101.327 53.7739L101.328 53.7833L101.329 53.7926L102.322 53.6742ZM101.413 56.3887L100.716 57.1058L101.469 57.8376L102.163 57.0498L101.413 56.3887ZM99.778 54.7997L99.0068 54.163L98.4197 54.8742L99.0811 55.5169L99.778 54.7997ZM100.17 53.5353L101.163 53.4196L100.17 53.5353ZM99.4296 52.2023L100.127 51.4851L99.4296 52.2023ZM98.203 51.4844L98.3572 50.4963L98.203 51.4844ZM97.2315 51.7953L97.9487 52.4922L97.2315 51.7953ZM96.9453 52.549L95.9464 52.5955L95.9464 52.5955L96.9453 52.549ZM97.1702 53.4368L96.2599 53.8507L96.2678 53.8681L96.2764 53.8852L97.1702 53.4368ZM97.8528 54.6858L96.9842 55.1814L96.9894 55.1903L96.9946 55.1992L97.8528 54.6858ZM98.7985 56.5251L97.8695 56.8951L97.8753 56.9097L97.8815 56.9241L98.7985 56.5251ZM99.0904 58.1474L98.0918 58.0952L99.0904 58.1474ZM98.3216 59.7708L99.0388 60.4677L99.0454 60.4609L99.0518 60.4541L98.3216 59.7708ZM96.7779 60.6132L96.5918 59.6307L96.7779 60.6132ZM94.9081 60.4137L95.2591 59.4773L95.2518 59.4746L94.9081 60.4137ZM106.233 58.9812L106.93 58.264L106.213 57.5671L105.516 58.2843L106.233 58.9812ZM101.982 63.3558L102.699 64.0528L101.982 63.3558ZM101.556 64.1964L100.556 64.2107L100.556 64.2464L100.559 64.2819L101.556 64.1964ZM102.092 65.0798L101.395 65.7969L102.092 65.0798ZM103.096 66.0555L103.813 66.7524L104.51 66.0352L103.793 65.3383L103.096 66.0555ZM101.772 67.4181L101.075 68.1352L101.792 68.8321L102.489 68.115L101.772 67.4181ZM100.481 66.1636L101.178 65.4465L101.178 65.4465L100.481 66.1636ZM99.2899 64.0026L98.2931 64.0816L99.2899 64.0026ZM100.333 61.7529L99.6155 61.056L100.333 61.7529ZM104.584 57.3783L105.301 58.0752L105.998 57.358L105.281 56.6611L104.584 57.3783ZM103.652 56.4723L102.934 55.7754L102.237 56.4925L102.955 57.1895L103.652 56.4723ZM104.948 55.1384L105.645 54.4212L104.928 53.7243L104.231 54.4415L104.948 55.1384ZM105.88 56.0444L105.183 56.7615L105.9 57.4584L106.597 56.7413L105.88 56.0444ZM107.79 54.0794L108.487 53.3622L107.769 52.6653L107.072 53.3825L107.79 54.0794ZM109.439 55.6823L110.156 56.3792L110.853 55.662L110.136 54.9651L109.439 55.6823ZM107.53 57.6473L106.812 56.9504L106.115 57.6675L106.833 58.3644L107.53 57.6473ZM109.452 59.515L110.169 60.2119L110.866 59.4948L110.148 58.7978L109.452 59.515ZM108.155 60.8489L107.458 61.5661L108.176 62.263L108.872 61.5458L108.155 60.8489ZM61.9819 0.707104L127.293 66.0181L128.707 64.6039L63.3961 -0.70711L61.9819 0.707104ZM127 65.311L127 105L129 105L129 65.311L127 65.311ZM128.707 104.293L23.7071 -0.707111L22.2929 0.707102L127.293 105.707L128.707 104.293ZM23 0.999995L62.689 0.999997L62.689 -1L23 -1L23 0.999995ZM62.2176 27.8093L65.5882 31.0848L66.9821 29.6505L63.6114 26.375L62.2176 27.8093ZM65.568 29.6708L64.2857 30.9903L65.72 32.3842L67.0023 31.0646L65.568 29.6708ZM65.6997 30.9701L60.694 26.1056L59.3002 27.54L64.3059 32.4044L65.6997 30.9701ZM60.7142 27.5197L70.4013 17.5512L68.967 16.1574L59.2799 26.1259L60.7142 27.5197ZM68.9873 17.5715L70.6224 19.1604L72.0162 17.7261L70.3811 16.1372L68.9873 17.5715ZM70.6021 17.7464L62.1974 26.3953L63.6317 27.7891L72.0364 19.1402L70.6021 17.7464ZM70.4172 29.1959C71.0911 28.5024 71.8002 28.0555 72.543 27.8164L71.9303 25.9126C70.8334 26.2656 69.8514 26.9083 68.9829 27.8021L70.4172 29.1959ZM72.5315 27.82C73.3007 27.5827 74.0274 27.5581 74.7313 27.7271L75.1983 25.7824C74.1233 25.5242 73.0313 25.5728 71.9418 25.9089L72.5315 27.82ZM74.7361 27.7282C75.4626 27.8988 76.1005 28.2488 76.6629 28.7954L78.0567 27.3611C77.2423 26.5696 76.2834 26.0372 75.1934 25.7812L74.7361 27.7282ZM76.6629 28.7954C77.1879 29.3055 77.5048 29.8166 77.6639 30.3248L79.5726 29.7275C79.2968 28.8464 78.7749 28.0589 78.0567 27.3611L76.6629 28.7954ZM77.6715 30.3482C77.8668 30.9223 77.9215 31.4347 77.866 31.898L79.8518 32.1359C79.9479 31.3336 79.8421 30.5188 79.5649 29.7041L77.6715 30.3482ZM79.576 32.7139L80.6911 31.5664L79.2568 30.1726L78.1417 31.32L79.576 32.7139ZM79.277 31.5867L80.9265 33.1896L82.3203 31.7552L80.6708 30.1523L79.277 31.5867ZM80.9062 31.7755L73.2263 39.6786L74.6606 41.0724L82.3405 33.1693L80.9062 31.7755ZM74.6403 39.6583L72.9909 38.0554L71.597 39.4897L73.2465 41.0926L74.6403 39.6583ZM73.0111 39.4695L74.154 38.2933L72.7197 36.8995L71.5768 38.0757L73.0111 39.4695ZM73.2773 36.6093C72.809 36.685 72.2831 36.6493 71.6852 36.4698L71.1103 38.3854C71.9519 38.638 72.7854 38.7148 73.5965 38.5836L73.2773 36.6093ZM71.6852 36.4698C71.1391 36.3059 70.6098 35.9925 70.0972 35.4944L68.7034 36.9287C69.4148 37.62 70.2171 38.1173 71.1103 38.3854L71.6852 36.4698ZM70.0972 35.4944C69.5463 34.9591 69.1885 34.3435 69.0059 33.634L67.069 34.1324C67.3457 35.2079 67.8964 36.1446 68.7034 36.9287L70.0972 35.4944ZM69.0089 33.6459C68.8321 32.9223 68.8479 32.1742 69.0727 31.3837L67.1491 30.8364C66.8353 31.9394 66.8021 33.0401 67.066 34.1205L69.0089 33.6459ZM69.0676 31.4012C69.3041 30.6238 69.7437 29.889 70.4172 29.1959L68.9829 27.8021C68.1139 28.6964 67.494 29.7023 67.1542 30.8189L69.0676 31.4012ZM76.8581 35.5108C77.4872 34.8633 77.9337 34.1297 78.145 33.3087L76.2081 32.8101C76.0979 33.2383 75.8539 33.6743 75.4238 34.117L76.8581 35.5108ZM78.1403 33.3262C78.3549 32.5512 78.3691 31.7749 78.1561 31.0197L76.2312 31.5626C76.3361 31.9344 76.3389 32.3369 76.2128 32.7926L78.1403 33.3262ZM78.1561 31.0197C77.9493 30.2865 77.5677 29.6467 77.0211 29.1155L75.6273 30.5499C75.9221 30.8364 76.1202 31.1689 76.2312 31.5626L78.1561 31.0197ZM77.0211 29.1155C76.4745 28.5843 75.824 28.2212 75.0852 28.0355L74.5976 29.9751C74.9944 30.0749 75.3324 30.2633 75.6273 30.5499L77.0211 29.1155ZM75.1045 28.0405C74.3494 27.8346 73.5724 27.8604 72.7971 28.0839L73.3509 30.0057C73.8151 29.8719 74.2165 29.8714 74.5783 29.9701L75.1045 28.0405ZM72.7895 28.0861C71.9928 28.3225 71.2848 28.791 70.661 29.4329L72.0953 30.8267C72.5308 30.3786 72.9534 30.1236 73.3585 30.0034L72.7895 28.0861ZM70.661 29.4329C70.0361 30.0759 69.5854 30.8006 69.3532 31.6084L71.2753 32.161C71.4024 31.719 71.6609 31.2737 72.0953 30.8267L70.661 29.4329ZM69.3484 31.6257C69.1384 32.4087 69.118 33.1896 69.316 33.9482L71.2512 33.4428C71.15 33.0554 71.15 32.629 71.2801 32.1437L69.3484 31.6257ZM69.3242 33.9777C69.5392 34.7085 69.9163 35.3466 70.4562 35.8712L71.85 34.4368C71.5675 34.1623 71.3649 33.828 71.2429 33.4133L69.3242 33.9777ZM70.4562 35.8712C71.0028 36.4024 71.6533 36.7655 72.3921 36.9512L72.8797 35.0116C72.4829 34.9118 72.1448 34.7233 71.85 34.4368L70.4562 35.8712ZM72.3921 36.9512C73.153 37.1425 73.9286 37.106 74.6971 36.8694L74.1086 34.9579C73.6567 35.0971 73.2543 35.1057 72.8797 35.0116L72.3921 36.9512ZM74.6894 36.8717C75.5061 36.6274 76.2284 36.1587 76.8581 35.5108L75.4238 34.117C74.9941 34.5591 74.5577 34.8236 74.1163 34.9556L74.6894 36.8717ZM83.6653 37.0502L79.4141 41.4249L80.8484 42.8187L85.0996 38.444L83.6653 37.0502ZM79.4141 41.4249C79.0428 41.807 78.6957 42.3307 78.7049 42.9767L80.7047 42.948C80.7056 43.0062 80.6888 43.0296 80.7004 43.0067C80.7141 42.9796 80.7538 42.9161 80.8484 42.8187L79.4141 41.4249ZM78.7085 43.0479C78.7625 43.6766 79.1557 44.1857 79.5439 44.5629L80.9377 43.1286C80.8113 43.0057 80.7436 42.9164 80.7108 42.8623C80.6781 42.8084 80.696 42.8163 80.7012 42.8768L78.7085 43.0479ZM79.5439 44.5629L80.5479 45.5386L81.9417 44.1043L80.9377 43.1286L79.5439 44.5629ZM80.5277 44.1245L79.2035 45.4871L80.6378 46.8809L81.962 45.5183L80.5277 44.1245ZM80.6176 45.4669L79.3267 44.2124L77.9329 45.6467L79.2238 46.9012L80.6176 45.4669ZM79.3267 44.2124C78.6935 43.597 78.4677 43.0893 78.436 42.6894L76.4422 42.8476C76.5256 43.8982 77.0936 44.8311 77.9329 45.6467L79.3267 44.2124ZM78.436 42.6894C78.4104 42.3669 78.5484 41.8853 79.199 41.2158L77.7646 39.822C76.9099 40.7016 76.3528 41.7197 76.4422 42.8476L78.436 42.6894ZM79.199 41.2158L83.4501 36.8411L82.0158 35.4473L77.7646 39.822L79.199 41.2158ZM83.4299 35.4271L82.4976 34.5211L81.1038 35.9554L82.0361 36.8614L83.4299 35.4271ZM82.5178 35.9352L83.8141 34.6013L82.3798 33.2074L81.0835 34.5413L82.5178 35.9352ZM82.4 34.6215L83.3323 35.5275L84.7261 34.0932L83.7938 33.1872L82.4 34.6215ZM84.7464 35.5072L86.6559 33.5422L85.2216 32.1484L83.3121 34.1134L84.7464 35.5072ZM85.2419 33.5625L86.8913 35.1654L88.2851 33.7311L86.6357 32.1282L85.2419 33.5625ZM86.8711 33.7513L84.9615 35.7163L86.3958 37.1101L88.3054 35.1451L86.8711 33.7513ZM84.9818 37.1304L86.9037 38.9981L88.2976 37.5638L86.3756 35.6961L84.9818 37.1304ZM86.8835 37.584L85.5872 38.9179L87.0216 40.3118L88.3178 38.9779L86.8835 37.584ZM87.0013 38.8977L85.0793 37.03L83.6855 38.4643L85.6075 40.332L87.0013 38.8977ZM91.982 49.8453C91.723 50.1118 91.4832 50.324 91.2632 50.4882L92.4593 52.0911C92.7804 51.8515 93.0992 51.5654 93.4163 51.2391L91.982 49.8453ZM92.5581 50.5725L86.5197 44.7045L85.1259 46.1388L91.1643 52.0068L92.5581 50.5725ZM85.055 44.7809C84.3459 45.6305 83.9834 46.6108 84.0501 47.6868L86.0462 47.5631C86.0148 47.0565 86.1687 46.5678 86.5905 46.0624L85.055 44.7809ZM84.0501 47.6868C84.1157 48.7463 84.5672 49.6675 85.3428 50.4212L86.7366 48.9869C86.2882 48.5511 86.0787 48.0863 86.0462 47.5631L84.0501 47.6868ZM85.3428 50.4212C85.8832 50.9464 86.5014 51.3261 87.1998 51.4943C87.9028 51.6636 88.6158 51.6013 89.3122 51.3539L88.6428 49.4692C88.2604 49.6051 87.9443 49.6164 87.6681 49.5499C87.3871 49.4822 87.0758 49.3165 86.7366 48.9869L85.3428 50.4212ZM88.2806 51.1287L90.0448 52.8431L91.4386 51.4088L89.6744 49.6944L88.2806 51.1287ZM90.2782 51.2399C89.5212 51.6359 88.7141 51.7775 87.8263 51.6592L87.5622 53.6417C88.8472 53.8129 90.0718 53.6049 91.2052 53.0121L90.2782 51.2399ZM87.8288 51.6596C87.0129 51.5488 86.2042 51.1468 85.3985 50.3638L84.0047 51.7981C85.054 52.8178 86.2404 53.4622 87.5596 53.6414L87.8288 51.6596ZM85.3985 50.3638C84.753 49.7365 84.3338 49.0533 84.1102 48.3113L82.1952 48.8882C82.526 49.9863 83.1394 50.9573 84.0047 51.7981L85.3985 50.3638ZM84.1155 48.3295C83.9066 47.5853 83.9017 46.8336 84.1076 46.0553L82.1742 45.5436C81.8792 46.6583 81.8821 47.7734 82.1899 48.87L84.1155 48.3295ZM84.1028 46.0731C84.3204 45.3081 84.7547 44.5693 85.4468 43.8571L84.0125 42.4632C83.1249 43.3766 82.5001 44.3973 82.1791 45.5259L84.1028 46.0731ZM85.4468 43.8571C86.1424 43.1413 86.8613 42.6867 87.6005 42.4488L86.9877 40.545C85.8873 40.8992 84.8966 41.5534 84.0125 42.4632L85.4468 43.8571ZM87.5951 42.4505C88.3607 42.2089 89.0964 42.1902 89.8249 42.3817L90.3336 40.4475C89.2258 40.1562 88.1049 40.1924 86.9931 40.5433L87.5951 42.4505ZM89.8183 42.38C90.5624 42.5811 91.2675 42.9877 91.9355 43.6369L93.3294 42.2026C92.4483 41.3464 91.4513 40.7496 90.3401 40.4493L89.8183 42.38ZM91.9355 43.6369C92.5737 44.2571 92.9815 44.9217 93.1944 45.6319L95.1101 45.0577C94.7883 43.9841 94.1829 43.032 93.3294 42.2026L91.9355 43.6369ZM93.1944 45.6319C93.407 46.3413 93.4144 47.0498 93.2129 47.7797L95.1407 48.3121C95.4411 47.2244 95.4322 46.1322 95.1101 45.0577L93.1944 45.6319ZM93.2111 47.7863C93.0197 48.4983 92.6241 49.1845 91.982 49.8453L93.4163 51.2391C94.2609 50.3699 94.8505 49.3919 95.1425 48.3055L93.2111 47.7863ZM92.2222 49.0526C92.9751 48.2529 93.3474 47.2859 93.2526 46.204L91.2602 46.3785C91.3007 46.8411 91.1648 47.258 90.766 47.6817L92.2222 49.0526ZM93.2526 46.204C93.1615 45.1642 92.6915 44.2599 91.9196 43.5098L90.5258 44.9441C90.9969 45.402 91.216 45.8739 91.2602 46.3785L93.2526 46.204ZM91.9196 43.5098C91.1857 42.7967 90.2936 42.401 89.28 42.3649L89.2087 44.3636C89.7045 44.3813 90.1313 44.5608 90.5258 44.9441L91.9196 43.5098ZM89.2932 42.3654C88.2672 42.3152 87.3251 42.67 86.4943 43.3355L87.7446 44.8965C88.2562 44.4867 88.7307 44.3403 89.1955 44.3631L89.2932 42.3654ZM86.4225 44.8331L90.7972 49.0843L92.191 47.65L87.8164 43.3988L86.4225 44.8331ZM93.7202 58.4506C93.1843 57.9299 92.8176 57.3898 92.5932 56.8331L90.7383 57.581C91.0808 58.4306 91.6192 59.1977 92.3264 59.8849L93.7202 58.4506ZM92.6017 56.8549C92.3871 56.2847 92.3263 55.767 92.3879 55.2874L90.4041 55.0329C90.296 55.8758 90.415 56.7227 90.7298 57.5592L92.6017 56.8549ZM92.3863 55.2991C92.4532 54.8218 92.6391 54.423 92.9498 54.0766L91.461 52.7412C90.8807 53.3882 90.527 54.1568 90.4057 55.0212L92.3863 55.2991ZM91.5085 54.126L93.201 55.7708L94.5948 54.3364L92.9023 52.6917L91.5085 54.126ZM93.1238 54.4205C92.6366 55.0161 92.4622 55.7326 92.5566 56.4845L94.541 56.2352C94.5078 55.9705 94.5661 55.8162 94.6719 55.6867L93.1238 54.4205ZM92.5618 56.5205C92.6853 57.2786 93.0724 57.9326 93.6358 58.4801L95.0296 57.0458C94.7133 56.7384 94.5778 56.457 94.5358 56.1991L92.5618 56.5205ZM93.6358 58.4801C94.1698 58.999 94.7844 59.4063 95.4802 59.5225L95.8097 57.5499C95.6738 57.5271 95.4135 57.4189 95.0296 57.0458L93.6358 58.4801ZM95.4877 59.5238C96.1924 59.6359 96.8881 59.4667 97.4184 58.921L95.9841 57.5271C95.9713 57.5404 95.9633 57.5456 95.9607 57.5472C95.9584 57.5486 95.9561 57.5498 95.9517 57.5511C95.9442 57.5533 95.9013 57.5644 95.8022 57.5486L95.4877 59.5238ZM97.4184 58.921C97.6797 58.6521 97.8744 58.3181 97.9514 57.9242C98.0274 57.5356 97.9755 57.158 97.8562 56.8164L95.9681 57.4759C95.9823 57.5167 95.9859 57.5405 95.9867 57.5493C95.9875 57.5571 95.9862 57.5527 95.9886 57.5403C95.9911 57.5274 95.9956 57.5165 95.999 57.5104C96.0019 57.5051 95.9997 57.5111 95.9841 57.5271L97.4184 58.921ZM97.8606 56.8293C97.689 56.3155 97.3546 55.6531 96.9032 54.8749L95.1731 55.8782C95.6112 56.6336 95.8594 57.151 95.9636 57.4629L97.8606 56.8293ZM96.8999 54.8692C96.4762 54.1494 96.1685 53.5608 95.9665 53.0965L94.1325 53.8944C94.379 54.4609 94.7304 55.1263 95.1764 55.8839L96.8999 54.8692ZM95.9665 53.0965C95.8063 52.7285 95.7339 52.3327 95.7559 51.8949L93.7584 51.7948C93.7217 52.5271 93.8441 53.2316 94.1325 53.8944L95.9665 53.0965ZM95.7549 51.9123C95.7741 51.6271 95.9065 51.2935 96.2853 50.9036L94.851 49.5098C94.2263 50.1527 93.8179 50.9111 93.7594 51.7774L95.7549 51.9123ZM96.2853 50.9036C96.5462 50.6351 96.8513 50.4731 97.2295 50.4065L96.8828 48.4368C96.0947 48.5755 95.4078 48.9368 94.851 49.5098L96.2853 50.9036ZM97.2422 50.4042C97.6278 50.3312 98.0646 50.3663 98.5749 50.5576L99.277 48.6848C98.4791 48.3857 97.6693 48.2878 96.87 48.4391L97.2422 50.4042ZM98.5679 50.5549C99.0843 50.7529 99.6055 51.0903 100.128 51.5982L101.522 50.1639C100.84 49.501 100.095 48.9985 99.284 48.6875L98.5679 50.5549ZM100.128 51.5982C100.903 52.3515 101.257 53.0759 101.327 53.7739L103.317 53.5746C103.189 52.2953 102.544 51.1575 101.522 50.1639L100.128 51.5982ZM101.329 53.7926C101.409 54.4684 101.219 55.0959 100.663 55.7275L102.163 57.0498C103.054 56.0389 103.47 54.8568 103.315 53.5558L101.329 53.7926ZM102.11 55.6715L100.475 54.0825L99.0811 55.5169L100.716 57.1058L102.11 55.6715ZM100.549 55.4364C101.025 54.8601 101.251 54.1707 101.163 53.4196L99.1768 53.651C99.1967 53.8225 99.1613 53.976 99.0068 54.163L100.549 55.4364ZM101.163 53.4196C101.075 52.6654 100.678 52.0211 100.127 51.4851L98.7327 52.9194C99.0608 53.2383 99.1571 53.4827 99.1768 53.651L101.163 53.4196ZM100.127 51.4851C99.6215 50.9943 99.0316 50.6015 98.3572 50.4963L98.0488 52.4724C98.1493 52.4881 98.3772 52.5739 98.7327 52.9194L100.127 51.4851ZM98.3572 50.4963C97.6683 50.3888 97.0137 50.5845 96.5144 51.0984L97.9487 52.4922C97.9637 52.4767 97.9729 52.4706 97.9752 52.4691C97.9772 52.4678 97.9765 52.4685 97.9744 52.4692C97.9669 52.4715 97.9852 52.4625 98.0488 52.4724L98.3572 50.4963ZM96.5144 51.0984C96.118 51.5063 95.9199 52.0263 95.9464 52.5955L97.9442 52.5024C97.9437 52.4906 97.9445 52.4857 97.9444 52.4864C97.9443 52.4874 97.9435 52.4912 97.9415 52.4965C97.9395 52.5018 97.9376 52.505 97.9373 52.5054C97.9371 52.5057 97.94 52.5012 97.9487 52.4922L96.5144 51.0984ZM95.9464 52.5955C95.9666 53.0296 96.0776 53.4498 96.2599 53.8507L98.0805 53.0229C97.9902 52.8243 97.9512 52.6526 97.9442 52.5024L95.9464 52.5955ZM96.2764 53.8852C96.4342 54.1999 96.6724 54.6348 96.9842 55.1814L98.7214 54.1903C98.4143 53.652 98.1974 53.2542 98.064 52.9884L96.2764 53.8852ZM96.9946 55.1992C97.4042 55.8839 97.6909 56.4468 97.8695 56.8951L99.7275 56.1551C99.4953 55.5721 99.1515 54.9088 98.711 54.1724L96.9946 55.1992ZM97.8815 56.9241C98.0434 57.2961 98.1134 57.6823 98.0918 58.0952L100.089 58.1997C100.127 57.4802 100.002 56.7848 99.7154 56.1261L97.8815 56.9241ZM98.0918 58.0952C98.0773 58.3723 97.9543 58.6998 97.5915 59.0875L99.0518 60.4541C99.6548 59.8096 100.044 59.0549 100.089 58.1997L98.0918 58.0952ZM97.6045 59.0739C97.3052 59.3819 96.9737 59.5584 96.5918 59.6307L96.964 61.5958C97.7669 61.4437 98.4646 61.0585 99.0388 60.4677L97.6045 59.0739ZM96.5918 59.6307C96.2062 59.7037 95.7694 59.6686 95.2591 59.4773L94.5571 61.3501C95.355 61.6492 96.1647 61.7471 96.964 61.5958L96.5918 59.6307ZM95.2518 59.4746C94.7673 59.2973 94.2552 58.9705 93.7202 58.4506L92.3264 59.8849C93.0154 60.5544 93.7598 61.0583 94.5644 61.3528L95.2518 59.4746ZM105.516 58.2843L101.265 62.6589L102.699 64.0528L106.95 59.6781L105.516 58.2843ZM101.265 62.6589C100.894 63.0411 100.547 63.5648 100.556 64.2107L102.556 64.1821C102.556 64.2403 102.54 64.2637 102.551 64.2407C102.565 64.2137 102.605 64.1501 102.699 64.0528L101.265 62.6589ZM100.559 64.2819C100.613 64.9107 101.007 65.4197 101.395 65.7969L102.789 64.3626C102.662 64.2398 102.594 64.1505 102.562 64.0963C102.529 64.0425 102.547 64.0503 102.552 64.1109L100.559 64.2819ZM101.395 65.7969L102.399 66.7726L103.793 65.3383L102.789 64.3626L101.395 65.7969ZM102.379 65.3586L101.054 66.7212L102.489 68.115L103.813 66.7524L102.379 65.3586ZM102.468 66.7009L101.178 65.4465L99.7837 66.8808L101.075 68.1352L102.468 66.7009ZM101.178 65.4465C100.544 64.8311 100.319 64.3233 100.287 63.9235L98.2931 64.0816C98.3764 65.1322 98.9444 66.0651 99.7837 66.8808L101.178 65.4465ZM100.287 63.9235C100.261 63.601 100.399 63.1193 101.05 62.4499L99.6155 61.056C98.7607 61.9356 98.2036 62.9537 98.2931 64.0816L100.287 63.9235ZM101.05 62.4499L105.301 58.0752L103.867 56.6814L99.6155 61.056L101.05 62.4499ZM105.281 56.6611L104.348 55.7551L102.955 57.1895L103.887 58.0954L105.281 56.6611ZM104.369 57.1692L105.665 55.8353L104.231 54.4415L102.934 55.7754L104.369 57.1692ZM104.251 55.8555L105.183 56.7615L106.577 55.3272L105.645 54.4212L104.251 55.8555ZM106.597 56.7413L108.507 54.7763L107.072 53.3825L105.163 55.3475L106.597 56.7413ZM107.093 54.7965L108.742 56.3994L110.136 54.9651L108.487 53.3622L107.093 54.7965ZM108.722 54.9854L106.812 56.9504L108.247 58.3442L110.156 56.3792L108.722 54.9854ZM106.833 58.3644L108.755 60.2322L110.148 58.7978L108.226 56.9301L106.833 58.3644ZM108.734 58.8181L107.438 60.152L108.872 61.5458L110.169 60.2119L108.734 58.8181ZM108.852 60.1318L106.93 58.264L105.536 59.6983L107.458 61.5661L108.852 60.1318Z" fill="white" mask="url(#path-1-outside-1_945_9702)"/>
</g>
<defs>
<filter id="filter0_d_945_9702" x="0.585938" y="-21" width="148.414" height="148.414" filterUnits="userSpaceOnUse" color-interpolation-filters="sRGB">
<feFlood flood-opacity="0" result="BackgroundImageFix"/>
<feColorMatrix in="SourceAlpha" type="matrix" values="0 0 0 0 0 0 0 0 0 0 0 0 0 0 0 0 0 0 127 0" result="hardAlpha"/>
<feOffset/>
<feGaussianBlur stdDeviation="10"/>
<feComposite in2="hardAlpha" operator="out"/>
<feColorMatrix type="matrix" values="0 0 0 0 1 0 0 0 0 1 0 0 0 0 1 0 0 0 0.5 0"/>
<feBlend mode="normal" in2="BackgroundImageFix" result="effect1_dropShadow_945_9702"/>
<feBlend mode="normal" in="SourceGraphic" in2="effect1_dropShadow_945_9702" result="shape"/>
</filter>
</defs>
</svg>
